<?xml version="1.0" encoding="utf-8"?>
<!-- Generator: Adobe Illustrator 16.0.0, SVG Export Plug-In . SVG Version: 6.00 Build 0)  -->
<!DOCTYPE svg PUBLIC "-//W3C//DTD SVG 1.1//EN" "http://www.w3.org/Graphics/SVG/1.1/DTD/svg11.dtd">
<svg version="1.1" id="Capa_1" xmlns="http://www.w3.org/2000/svg" xmlns:xlink="http://www.w3.org/1999/xlink" x="0px" y="0px"
	 width="64px" height="64px" viewBox="0 0 64 64" enable-background="new 0 0 64 64" xml:space="preserve">
<g>
	<path fill="#FFFFFF" d="M59.82,45.995l-27.25-18.5c-0.031-0.021-0.073-0.04-0.124-0.058c-0.07-0.025-0.13-0.44-0.13-0.934
		s0.419-1.056,0.884-1.356c1.551-1.002,2.591-2.767,2.591-4.685c0-3.873-2.628-6.476-6.54-6.476c-3.01,0-5.525,1.992-6.262,4.956
		c-0.199,0.804,0.291,1.617,1.095,1.817c0.806,0.202,1.617-0.291,1.817-1.095c0.398-1.603,1.743-2.679,3.35-2.679
		c2.25,0,3.54,1.267,3.54,3.476c0,1.211-0.995,2.366-2.173,2.524c-0.745,0.099-1.302,0.734-1.302,1.486v1.908
		c0,0.553-0.105,1.021-0.232,1.059c-0.092,0.028-0.167,0.06-0.217,0.096l-24.5,18.5c-0.526,0.382-0.746,1.059-0.546,1.677
		c0.2,0.618,0.776,1.037,1.427,1.037H59c0.663,0,1.248-0.436,1.438-1.071C60.627,47.043,60.377,46.357,59.82,45.995z M52.973,45.75
		H10.872c-0.553,0-0.619-0.234-0.149-0.525l17.642-10.892c1.342-0.974,3.553-1.026,4.938-0.118l19.795,11.049
		C53.581,45.532,53.523,45.75,52.973,45.75z"/>
</g>
</svg>
