<?xml version="1.0" encoding="utf-8"?>
<!-- Generator: Adobe Illustrator 16.0.0, SVG Export Plug-In . SVG Version: 6.00 Build 0)  -->
<!DOCTYPE svg PUBLIC "-//W3C//DTD SVG 1.1//EN" "http://www.w3.org/Graphics/SVG/1.1/DTD/svg11.dtd">
<svg version="1.1" id="Capa_1" xmlns="http://www.w3.org/2000/svg" xmlns:xlink="http://www.w3.org/1999/xlink" x="0px" y="0px"
	 width="64px" height="64px" viewBox="0 0 64 64" enable-background="new 0 0 64 64" xml:space="preserve">
<g>
	<path fill="#FFFFFF" d="M31.262,58.504c3.446-3.445,4.443-8.564,3.173-13.663c0.244-2.388,1.963-3.308,3.154-3.659
		c0.684-0.063,1.379-0.188,2.072-0.404c4.393-1.37,7.552-5.809,6.296-7.795c-0.839-1.329-1.679-2.102-4.171-0.871h-0.001
		l-0.002,0.002c-0.284,0.14-0.589,0.307-0.918,0.501c-0.903,0.398-2.271,0.742-3.165-0.257c-0.906-1.012-0.424-2.672,0.055-3.758
		L50.09,16.072l0.006,0.005c0.021-0.025,0.043-0.049,0.063-0.074l0.325-0.331c1.135-1.02,2.652-1.208,3.471-0.389
		c0.037,0.037,0.061,0.082,0.093,0.122c0.05-0.123,0.103-0.248,0.16-0.375c0.597-1.309,1.653-2.805,3.062-4.214
		c1.285-1.285,2.645-2.281,3.867-2.9c0.118-0.06,0.232-0.11,0.348-0.163l0.625-0.626c-0.051-0.397,0.013-0.89,0.328-1.478
		c0,0-1.026-1.426-1.102-2.352C61.296,2.808,61,2.692,60.729,2.689c-0.244-0.003-0.469,0.083-0.469,0.083s0.086-0.224,0.083-0.468
		c-0.004-0.272-0.12-0.569-0.608-0.608c-0.926-0.075-2.352-1.101-2.352-1.101c-0.588,0.315-1.081,0.378-1.479,0.327l-0.625,0.626
		c-0.053,0.115-0.104,0.229-0.163,0.347c-0.618,1.222-1.615,2.582-2.9,3.867c-1.407,1.408-2.905,2.466-4.214,3.062
		c-0.127,0.058-0.252,0.111-0.375,0.16c0.04,0.033,0.085,0.056,0.122,0.093c0.741,0.741,0.662,2.054-0.112,3.138L34.809,25.243
		c-1.095,0.617-3.105,1.482-4.036,0.151c-1.048-1.5-0.378-3.277-0.065-3.933c0.045-0.086,0.09-0.171,0.131-0.253
		c0.001-0.002,0.005-0.009,0.005-0.009l-0.001-0.001c1.244-2.507,0.469-3.348-0.861-4.189c-1.988-1.256-6.425,1.904-7.795,6.296
		c-0.112,0.357-0.193,0.715-0.262,1.072l-0.005-0.002c0,0-0.003,0.031-0.009,0.083c-0.029,0.158-0.062,0.316-0.084,0.473
		c-0.281,1.287-1.367,4.333-5.313,3.919v0.001c-4.283-0.479-8.394,0.683-11.309,3.597c-5.797,5.797-4.664,16.329,2.532,23.524
		C14.933,63.168,25.465,64.301,31.262,58.504z"/>
</g>
</svg>
