<?xml version="1.0" encoding="utf-8"?>
<!-- Generator: Adobe Illustrator 16.0.0, SVG Export Plug-In . SVG Version: 6.00 Build 0)  -->
<!DOCTYPE svg PUBLIC "-//W3C//DTD SVG 1.1//EN" "http://www.w3.org/Graphics/SVG/1.1/DTD/svg11.dtd">
<svg version="1.1" id="Capa_1" xmlns="http://www.w3.org/2000/svg" xmlns:xlink="http://www.w3.org/1999/xlink" x="0px" y="0px"
	 width="64px" height="64px" viewBox="0 0 64 64" enable-background="new 0 0 64 64" xml:space="preserve">
<g>
	<rect x="4.92" y="51.549" fill="#FFFFFF" width="5.025" height="5.025"/>
	<rect x="4.92" y="45.408" fill="#FFFFFF" width="5.025" height="5.023"/>
	<rect x="4.92" y="39.266" fill="#FFFFFF" width="5.025" height="5.024"/>
	<rect x="4.92" y="33.124" fill="#FFFFFF" width="5.025" height="5.024"/>
	<rect x="4.92" y="26.981" fill="#FFFFFF" width="5.025" height="5.025"/>
	<rect x="4.92" y="20.84" fill="#FFFFFF" width="5.025" height="5.024"/>
	<rect x="4.92" y="14.698" fill="#FFFFFF" width="5.025" height="5.025"/>
	<rect x="4.92" y="8.557" fill="#FFFFFF" width="5.025" height="5.025"/>
	<rect x="11.062" y="51.549" fill="#FFFFFF" width="5.025" height="5.025"/>
	<rect x="11.062" y="45.408" fill="#FFFFFF" width="5.025" height="5.023"/>
	<rect x="11.062" y="39.266" fill="#FFFFFF" width="5.025" height="5.024"/>
	<rect x="11.062" y="33.124" fill="#FFFFFF" width="5.025" height="5.024"/>
	<rect x="11.062" y="26.981" fill="#FFFFFF" width="5.025" height="5.025"/>
	<rect x="17.204" y="51.549" fill="#FFFFFF" width="5.024" height="5.025"/>
	<rect x="17.204" y="45.408" fill="#FFFFFF" width="5.024" height="5.023"/>
	<rect x="17.204" y="39.266" fill="#FFFFFF" width="5.024" height="5.024"/>
	<rect x="23.345" y="51.549" fill="#FFFFFF" width="5.025" height="5.025"/>
	<rect x="23.345" y="45.408" fill="#FFFFFF" width="5.025" height="5.023"/>
	<rect x="23.345" y="39.266" fill="#FFFFFF" width="5.025" height="5.024"/>
	<rect x="23.345" y="33.124" fill="#FFFFFF" width="5.025" height="5.024"/>
	<rect x="23.345" y="26.981" fill="#FFFFFF" width="5.025" height="5.025"/>
	<rect x="23.345" y="20.84" fill="#FFFFFF" width="5.025" height="5.024"/>
	<rect x="29.487" y="51.549" fill="#FFFFFF" width="5.025" height="5.025"/>
	<rect x="29.487" y="45.408" fill="#FFFFFF" width="5.025" height="5.023"/>
	<rect x="35.63" y="51.549" fill="#FFFFFF" width="5.024" height="5.025"/>
	<rect x="35.63" y="45.408" fill="#FFFFFF" width="5.024" height="5.023"/>
	<rect x="35.63" y="39.266" fill="#FFFFFF" width="5.024" height="5.024"/>
	<rect x="35.63" y="33.124" fill="#FFFFFF" width="5.024" height="5.024"/>
	<rect x="35.63" y="26.981" fill="#FFFFFF" width="5.024" height="5.025"/>
	<rect x="35.63" y="20.84" fill="#FFFFFF" width="5.024" height="5.024"/>
	<rect x="35.63" y="14.698" fill="#FFFFFF" width="5.024" height="5.025"/>
	<rect x="41.771" y="51.549" fill="#FFFFFF" width="5.024" height="5.025"/>
	<rect x="47.912" y="51.549" fill="#FFFFFF" width="5.025" height="5.025"/>
	<rect x="47.912" y="45.408" fill="#FFFFFF" width="5.025" height="5.023"/>
	<rect x="47.912" y="39.266" fill="#FFFFFF" width="5.025" height="5.024"/>
	<rect x="54.055" y="51.549" fill="#FFFFFF" width="5.025" height="5.025"/>
	<rect x="54.055" y="45.408" fill="#FFFFFF" width="5.025" height="5.023"/>
	<rect x="54.055" y="39.266" fill="#FFFFFF" width="5.025" height="5.024"/>
	<rect x="54.055" y="33.124" fill="#FFFFFF" width="5.025" height="5.024"/>
</g>
</svg>
